<?xml version="1.0" encoding="utf-8"?>
<!-- Generator: Adobe Illustrator 24.1.3, SVG Export Plug-In . SVG Version: 6.00 Build 0)  -->
<svg version="1.1" id="Capa_1" xmlns="http://www.w3.org/2000/svg" xmlns:xlink="http://www.w3.org/1999/xlink" x="0px" y="0px"
	 viewBox="0 0 460.6 288" style="enable-background:new 0 0 460.6 288;" xml:space="preserve">
<style type="text/css">
	.st0{fill:#12100D;}
	.st1{fill:#8D3A24;}
	.st2{fill:#326262;}
	.st3{fill:#DDBFBF;}
	.st4{fill:#BC8F4D;}
	.st5{fill:#D5A963;}
</style>
<g>
	<g>
		<path class="st0" d="M451.87,287.96c-85.26,0-170.52,0-255.78,0c-0.11-0.51-0.21-1.03-0.32-1.54c1.33-0.18,1.92-0.82,2.41-2.22
			c0.75-2.16,0.9-4.4,2.16-6.57c3.94-6.78,6.69-13.97,3.1-21.99c-1.26-2.81-3.04-3.86-5.93-2.72c-1.18,0.47-2.27,1.17-3.46,1.59
			c-2.24,0.8-2.71,2.42-2.62,4.6c0.24,6.27,0.51,12.54,1.17,18.78c-2.18,1.89-5.21,2.29-7.38,4.21c-0.61,0.36-1.21,0.72-1.82,1.08
			c-2.07,1.59-4.13,3.18-6.2,4.78c-29.95,0-59.9,0-89.85,0c-0.85-3.27-4.02-5.39-7.28-4.48c-4.46,1.24-8.91,2.54-13.14,4.48
			c-21.7,0-43.4-0.02-65.09,0.04c-1.52,0-1.84-0.31-1.83-1.83c0.07-18.8,0.04-37.6,0.04-56.41c1.89-0.68,3.49-1.74,4.47-3.54
			c1.06-1.96,2.48-3.63,4-5.23c3.47-3.63,6.36-7.7,9.13-11.87c1.62-2.44,1.88-5.6,0.25-6.51c-4.91-2.73-9.65-6.77-15.9-3.33
			c-0.59,0.33-1.25,0.55-1.96,0.36C0.05,133.88,0.06,68.11,0,2.35C0,0.43,0.43,0,2.35,0c40.59,0.06,81.17,0.05,121.76,0.05
			c-0.2,1.25-0.26,2.54-0.64,3.74c-0.67,2.12,0.06,2.89,2.19,3.14c6.51,0.76,11.01-2.79,15.29-6.88c3.4,0,6.81,0,10.21,0
			c0.31,0.82,0.34,1.81,1.34,2.21c0,0,0,0.04,0,0.04c0.13,0.21,0.22,0.52,0.41,0.61c3.2,1.48,6.48,2.8,9.33,4.95
			c0.73,0.55,1.37,0.17,2.12-0.04c4.06-1.14,6.07-4.26,7.72-7.76c13.27,0,26.55,0,39.82,0c-0.19,1.51-1.97,1.34-2.57,2.55
			c-1.94,3.9-1.98,7.76-0.15,11.67c0.33,0.7,0.67,1.43,1.58,1.46c3.31,0.14,6.37-1,8.52-3.27c1.81-1.9,2.86-4.56,1.17-7.4
			c-0.94-1.59-1.63-3.34-2.43-5.01c46.12,0,92.24,0,138.35,0c0.99,5.76,3.22,11.05,5.92,16.2c1.04,1.99,2.73,2.96,4.46,4
			c0.77,0.46,1.61,0.45,2.25-0.43c4.18-5.72,9.06-11.26,4.37-19.02c-0.12-0.2-0.1-0.5-0.15-0.75c28.42,0,56.84,0.02,85.26-0.05
			c1.75,0,2.1,0.34,2.09,2.09c-0.08,19.57-0.05,39.14-0.05,58.7c-1.69-0.01-3.4-0.14-5.08-0.02c-3.63,0.27-6.93,1.3-8.23,5.18
			c-1.4,4.16-2.64,8.38-3.83,12.6c-0.38,1.36,0.17,2.49,1.68,2.95c1.8,0.55,3.46,1.47,4.86,2.69c3.38,2.95,7.01,5.57,10.6,8.24
			c0,17.02,0,34.03,0,51.05c-3.14,3.23-5.62,6.96-7.82,10.86c-0.77,1.37-0.85,3.85,0.02,4.28c2.58,1.25,4.52,3.97,7.8,3.75
			c0,36.58,0,73.17,0,109.75C455.24,276.08,450.33,280.25,451.87,287.96z M274.73,271.04l0.15,0.03l0.03-0.15
			c-0.39-0.34-0.79-0.68-1.18-1.02c-1.49-1.09-2.95-2.25-4.5-3.24c-0.6-0.38-1.36-1.24-2.2-0.23c-0.55,0.16-0.9,0.52-1.07,1.06
			l-0.03-0.02c-0.7,0.84-1.43,1.66-2.09,2.53c-2.08,2.77-1.09,5.58,2.25,6.42c3.06,0.77,6.2,0.84,9.33,0.81
			c3.02-0.03,3.56-0.97,2.19-3.68c-0.43-0.85-0.91-1.62-1.85-1.98l0.01,0.03C275.54,271.21,275.28,270.85,274.73,271.04z M134.6,162
			l0.13-0.08c0.18,1.49,1.02,2.61,2.07,3.6l-0.08,0.03c0.34,0.67,0.62,1.37,1.03,1.99c0.34,0.52,0.47,1.38,1.35,1.28
			c0.81-0.09,0.97-0.9,1.19-1.48c0.69-1.79,1.29-3.61,1.92-5.42c0.58-0.58,0.13-1.36,0.4-2c0.21-0.14,0.53-0.22,0.61-0.41
			c3.13-7.8,5.45-15.79,5.39-24.3c-0.01-1.34-0.6-1.77-1.93-1.55c-3.78,0.61-7.59,0.72-11.42,0.62c-3.56-0.1-7.13,0-10.7,0.1
			c-1.71,0.05-2.86,0.52-2.16,2.79c0.74,2.4,1.03,4.94,1.52,7.41c-2.62-1.69-4.21-4.36-6.25-6.6c-0.81-0.89-1.64-2.07-2.93-0.89
			c-2.81,2.59-6.46,3.71-9.63,5.67c-4.72,2.92-5.12,3.54-4.42,9.01c0.54,4.21,3.49,6.45,7.66,5.97c5.27-0.6,10.18-2.63,15.3-3.8
			c1.75-0.4,3.16-1.04,3.66-2.91c1.77,2.64,3.54,5.28,5.32,7.93l0.04-0.07C132.98,160.12,133.65,161.15,134.6,162z M380.85,81.26
			c0.01,0.16,0.05,0.32,0.13,0.46c-0.59,1.27-0.76,2.67-0.64,3.98c0.83,8.52,2.83,16.8,5.71,24.85c0.52,1.45,1.77,1.73,3.13,1.39
			c1.96-0.49,3.92-1.01,5.85-1.62c2.8-0.87,4.12-3.83,3.19-6.64c-2.68-8.13-8.21-14.41-13.41-20.9c1.38-1.18,3.28-0.1,4.71-1.07
			c1.76,0.03,1.07-0.82,0.48-1.48c-1.7-1.94-2.78-4.24-3.94-6.5c-0.44-0.85-1-1.51-1.81-2.05c-2.91-1.96-6.31-2.88-9.37-4.52
			c-0.8-0.43-1.64-0.34-2.36,0.31c-0.76,0.69-0.78,1.62-0.33,2.33c1.63,2.63,2.91,5.54,5.5,7.46l0.05-0.07
			c0.17,1.41,1.3,2.14,2.18,3.05c0.14,0.15,0.28,0.3,0.43,0.45c0.18,0.19,0.35,0.37,0.53,0.56L380.85,81.26z M238.76,58.47
			c-0.18-0.03-0.3,0.03-0.37,0.2c-2.27,1.28-0.88,2.46,0.1,3.66c0.63,1.77,2.17,1.07,3.23,0.96c1.98-0.22,3.81-1.08,5.66-1.87
			c2.02-0.86,2.37-2.39,2.37-4.25c0-0.73-0.3-1.12-1.07-1.01c-3.39,0.45-6.96,0.1-9.95,2.28L238.76,58.47z M220.64,198.09
			c-0.38-0.49-0.77-0.98-1.15-1.47c-0.19-0.18-0.38-0.35-0.57-0.53c-3.1-1.74-6.62,0.06-6.7,3.52c-0.05,2.28,0.03,4.58,0.25,6.86
			c0.19,2.01,0.53,4.15,2.3,5.4c0.97,0.68,1.63,1.54,1.98,2.45c0.99,2.57,3.52,3.83,4.84,6.11c0.43,0.74,1.4,0.88,2.31,0.57
			c2.55-0.85,4.28-3.75,3.72-6.41c-0.34-1.63-1.11-3.2-1.21-4.83c-0.3-4.75-2.2-8.61-5.75-11.71L220.64,198.09z M389.35,239.12
			c0.25,0.01,0.51,0.04,0.76,0.02c2.71-0.27,4.01-1.6,3.15-3.77c-0.7-1.78-2.62-1.09-4-0.78c-1.46,0.32-2.97,0.66-4.23,1.58
			c-0.46,0.19-0.93,0.37-1.39,0.56c-0.73,0.31-1.77,0.36-1.6,1.54c0.17,1.23,1.26,1.26,2.13,1.29
			C385.9,239.63,387.66,239.68,389.35,239.12z M336.93,48.07c2.34,3.26,2.35,3.26,5.63,1.1c0.55-0.36,1.05-0.82,1.57-1.23l0.24,0.05
			c0,0,0.25,0,0.25,0c-0.16,0.65-0.56,1.35-0.43,1.93c0.96,4.28,1.71,8.62,3.89,12.53c0.46,0.83,1.08,0.92,1.89,0.91
			c2.14-0.03,5.8-4.96,5.22-7.66c-0.74-3.42-0.6-7.34-4.15-9.61c-0.39-0.25-0.58-0.79-0.87-1.2c2.71-1.55,5.46-3.03,8.11-4.69
			c2.09-1.31,3.02-3.13,2.54-5.81c-1.07-5.98-3.16-11.25-7.95-15.36c-4.75-4.08-9.8-7.45-15.86-9.17c-3.87-0.16-5.41,0.99-6.7,4.53
			c-1.51,4.17-2.8,8.32-1.56,12.8c0.43,3.46,1.81,6.67,2.59,10.04c-4.6,1.36-8.97,3.49-13.83,4c-4.62,0.48-8.96,2.03-12.84,4.49
			c-4.19,2.66-6.06,6.61-5.07,11.67c0.13,0.66,0.05,1.36,0.1,2.03c0.33,4.47,0.86,5.1,5.5,5.45c5.4,0.41,10.81,0.71,16.22,0.91
			c3.34,0.12,6.37-1.28,9.02-3.04c1.39-0.92,0.95-3.24,0.98-4.99c0-0.22,0.25-0.42,0.3-0.65c0.9-3.95,2.65-7.7,2.75-11.83
			c1.19,0.61,1.41,2.08,2.47,2.81L336.93,48.07z M166.86,67.69c0.7,1.09,1.73,1.7,2.94,2.08c1.54,0.5,3.14,0.68,4.75,0.74
			c3.1,0.11,6.76-3.46,6.91-6.7c-0.03-0.33,0.06-0.75-0.12-0.97c-2.54-3.17-5.59-5.69-9.36-7.31c-1.24-0.53-2.49-1.37-3.49,0.15
			c-0.66,1-1.54,1.47-2.57,1.86c-1.17,0.45-1.88,1.27-2.3,2.49c-0.96,2.8,0.17,5.65,3.21,7.7L166.86,67.69z M212.94,43.88
			c-1.13-0.32-2.25-0.68-3.4-0.94c-3.69-0.85-6.85,2.43-5.78,5.99c0.22,0.73,0.51,1.43,0.77,2.15c0.59,2.23,1.34,4.46,3.17,5.93
			c1.94,1.55,7.42,0.61,9.53-1.39c3.68-3.48,3.71-3.65,1.32-7.78c-0.08-0.15-0.16-0.3-0.23-0.46
			C217.33,44.99,215.44,43.97,212.94,43.88z M317.62,258.06c-2.37-0.54-4.7-1.26-7.19-1.19c-5.03,0.15-5.47,0.78-3.85,5.66
			c0.05,0.15,0.19,0.27,0.29,0.41c1.68,4.01,3.37,8.01,5.01,12.03c0.36,0.89,0.74,1.24,1.66,0.68c5.9-3.61,12.15-6.83,12.88-14.98
			c0.14-1.53-0.01-1.84-1.48-1.9C322.49,258.68,320.06,258.32,317.62,258.06z M432.85,222.96c-0.2,0.88-0.37,1.77-0.59,2.65
			c-0.34,1.33-0.69,2.64,0.99,3.37c1.35,1.31,2.96,2.25,4.48,3.33c1.36,0.97,2.43,0.74,3.92,0.14c1.75-0.71,2.49-2.47,4.17-3.18
			c2.34-0.99,4.73-1.22,7.22-1.13c1,0.04,2.53,0.14,2.49-1.08c-0.07-2.19,0.23-5.05-1.31-6.4c-2.75-2.4-6.04-4.56-10.16-3.57
			c-3.39,0.81-6.65,1.99-9.8,3.5C433.2,221.11,432.67,221.78,432.85,222.96z M329.91,206.92c2.3,0.88,4.56,0.28,6.86-0.06
			c1.54-0.23,2.5-0.88,2.88-2.38c1.24-1.89,1.47-4.12,2.1-6.21c2.16-7.12,1.11-6.4-5.18-7.22c-1.97-0.26-3.18-0.62-3.82-2.78
			c-0.92-3.12-3.55-4.13-6.57-2.98c-1.11,0.42-2.21,0.88-3.35,1.19c-1.26,0.35-1.92,1.01-2.31,2.35c-1.02,3.48-0.94,6.58,1.04,9.9
			C323.68,202.28,326.6,204.72,329.91,206.92z M333.31,108.78c-4.03-7.46-10.78-9.71-18.7-9.86c-1.73-0.03-2.61,0.61-3.29,2.12
			c-3.43,7.57-1.99,11.26,5.68,14.33c6.43,2.57,12.64,0.62,16.04-5.04C333.87,109.94,333.43,109.33,333.31,108.78z M78.1,29.21
			c0.79-0.62,1.71-0.56,2.64-0.59c2.79-0.11,5.48,0.92,8.3,0.63c1.48-0.15,2.28-0.56,2.34-2.23c0.13-3.55-0.72-6.92-1.59-10.29
			c-0.17-0.67-0.61-1.11-1.48-1.46c-2.33-0.92-4.72-0.02-6.96-0.54c-4.14-0.96-8.19-0.53-12.28,0.04c-1.28,0.18-1.71,0.79-1.84,1.96
			c-0.23,2-0.22,4.08-1.36,5.88c-3.25-0.99-6.12-2.93-9.47-3.65c-0.79-0.17-1.63-0.78-2.41-0.03c-4.36,4.21-6.9,9.48-8.18,15.27
			c-1,4.53,0.97,8.68,2.89,12.65c2.2,4.54,6.47,6.26,11.03,7.32c3.04,0.71,4.08-2.17,5.89-3.65c0.2-0.16,0.39-0.33,0.58-0.5
			c3.77-3.16,7.93-6.01,9.35-11.14C79.05,36.34,78.34,32.71,78.1,29.21z M243.38,181.6c0.04-0.92-0.36-1.64-1.04-2.22
			c-7.08-6.09-14.47-11.69-23.36-14.94c-1.2-0.44-2.44-0.78-3.73-0.28c-3.72,1.45-6.69,3.92-9.26,6.91
			c-0.87,1.01-0.92,2.03-0.04,3.2c6.75,8.96,15.22,16.12,23.93,23.04c0.92,0.73,1.65,0.93,2.61-0.06c2.96-3.05,5.9-6.13,8.18-9.72
			C241.82,185.71,243.39,183.99,243.38,181.6z M255.59,154.96c0.97-0.71,1.18-1.77,1.42-2.7c0.6-2.39,2.09-3.72,4.38-4.44
			c5.45-1.72,10.21-4.94,15.45-7.14c2.58-1.08,5.11-2.23,5.58-5.72c0.46-3.38,0.71-3.31-2.82-3.89c-0.85-0.14-1.66-0.52-2.49-0.81
			c-5.95-2.06-11.93-3.8-18.36-3.58c-3.83,0.13-6.36,1.81-8,5.19c-1.19,2.46-1.68,5.14-2.44,7.72c-0.67,2.3-0.32,4.9,0.85,6.9
			C250.94,149.52,253.1,152.37,255.59,154.96z M101.27,72.55c0.06,7,1.9,12.6,5.55,17.65c3.15,4.36,6.07,4.1,10.74,1.28
			c1.45-0.88,1.88-2.15,1.68-3.9c-0.7-6.09-2.27-11.95-4.65-17.55c-1.9-4.47-5.1-7.7-10.32-8.23c-1.46-0.15-2.23,0.28-2.32,1.85
			C101.77,66.62,101.5,69.59,101.27,72.55z M414.52,236.16c-1.62-0.49-2.64,0.41-3.77,1.45c-4.12,3.79-6.51,8.78-9.62,13.29
			c-2.55,3.7-0.93,8,2.18,10.04c1.13,0.74,1.93,0.9,2.74-0.34c1.45-2.22,3.74-3.02,6.18-3.55c3.31-0.73,6.64-1.41,9.91-2.26
			c3.44-0.9,3.74-1.5,3.53-5.02c-0.07-1.26-0.54-2.42-1.26-3.27c-1.67-1.98-2.8-4.22-3.75-6.57
			C419.52,237.1,417.55,235.81,414.52,236.16z M129.3,133.23c4.45,0.38,7.81-0.55,11.2-1.21c1.04-0.2,1.76-0.71,2.43-1.61
			c2.98-4.01,4.05-8.85,5.7-13.4c0.66-1.83-0.4-4.18-1.81-5.61c-1.18-1.2-2.73,0.11-3.9,0.78c-5.88,3.37-11.37,7.34-16.78,11.42
			c-3.4,2.56-3.61,3.99-1.84,7.75C125.67,134.28,128.15,133.03,129.3,133.23z M259.56,248.61c2.41,0.1,4.76-0.34,7.02-1.07
			c3.71-1.2,4.61-3.59,2.89-7.04c-0.5-1-1-1.99-1.88-2.68c-3.96-3.13-7.95-6.22-11.93-9.32c-0.42-0.32-0.91-0.7-1.34-0.22
			c-1.8,2-4.66,3.21-5.63,5.68c-1.21,3.1-1.99,6.45-2.25,9.84c-0.08,1.02,0.44,1.5,1.32,1.9
			C251.53,247.4,255.43,248.46,259.56,248.61z M298.14,95.51c1.44-0.13,2.93-0.06,4.31-0.44c2.95-0.81,6.3-1.63,7.4-4.76
			c1.12-3.18-0.4-6.5-1.06-9.71c-0.06-0.31-0.6-0.58-0.97-0.76c-4.18-2.04-8.52-3.39-13.25-3.07c-3.66,0.25-5.96,3.01-5.42,6.56
			c0.25,1.68,0.7,3.33,0.9,5.02C290.68,93.82,292.64,95.58,298.14,95.51z M375.22,165.06c-1.53,0-3.06-0.1-4.58,0.02
			c-3.07,0.25-3.73,1.58-1.94,4.08c2.07,2.89,4.2,5.75,6.51,8.45c3.97,4.63,5.83,4.96,11.43,2.52c1.09-0.47,2.18-0.94,3.28-1.36
			c2.39-0.91,3.62-2.68,3.13-5.15c-0.77-3.83-1.87-6.39-4.51-7.01C384.14,165.58,379.74,164.85,375.22,165.06z M75.57,261.07
			c-3.27-0.08-8.46,3.65-9.24,6.18c-0.35,1.16-1.32,2.24-0.69,3.63c1.31,2.93,7.31,6.08,10.52,5.35c3.06-0.7,6.06-1.57,8.85-3.11
			c2.85-1.58,4.11-4.27,3.48-7.51c-0.34-1.74-1.25-2.76-2.94-3.04C81.95,262,78.34,261.49,75.57,261.07z M67.49,121.59
			c3.94-0.27,7.32-0.64,10.73-0.65c1.98,0,2.78-1.73,1.79-3.68c-0.96-1.88-2.11-3.67-3.17-5.5c-0.99-1.71-2.53-2.4-4.45-2.47
			c-3.25-0.12-6.43,0.66-9.64,0.76c-4.24,0.13-6.31,3.3-8.89,5.73c-1.16,1.09-0.56,3.18,0.9,3.48
			C59.16,120.16,63.59,120.89,67.49,121.59z M305.76,187.64c0.08-2.29-0.07-2.66-1.76-4.21c-5.58-5.12-5.72-5.15-12.6-2.07
			c-0.23,0.1-0.47,0.21-0.69,0.32c-2.92,1.43-4.32,3.18-3.62,6.27c1.38,6.09,2.05,8.76,8.82,7.03c1.31-0.33,2.67-0.49,4.02-0.69
			C303.5,193.75,305.62,191.35,305.76,187.64z M32.49,56.15c0.15-2.52-1.74-9.15-3.1-11.15c-0.48-0.7-1.02-1.15-1.88-0.94
			c-3.6,0.89-7,2.25-9.45,5.15c-2.85,3.38-1.85,6.86,2.28,8.32c2.31,0.82,4.64,1.61,7,2.28C31.43,60.97,32.24,60.36,32.49,56.15z
			 M177.26,166.73c0.38,2.72,0.69,6.19,1.41,9.57c0.46,2.16,2.8,1.86,4.4,2.34c1.43,0.43,1.17-1.09,1.54-1.81
			c1.69-3.26,3.32-6.56,5.02-9.82c0.91-1.75,0.3-5.68-1.23-5.93c-2.58-0.42-4.96-1.64-7.54-1.78c-1.07-0.06-2.96-0.87-3.17,1.39
			C177.52,162.46,177.43,164.23,177.26,166.73z M231.84,269.06c4.24,0.09,8.3-3.99,8.21-8.26c-0.08-3.89-0.3-4.18-4.23-4.83
			c-1.76-0.29-3.54-0.39-5.31-0.63c-2.66-0.35-4.04,1.29-5.04,3.33c-1.37,2.79,0.11,5.55,0.34,8.32c0.03,0.3,0.52,0.69,0.88,0.81
			C228.36,268.37,230,269.12,231.84,269.06z M12.55,128.87c2.02-0.02,4.67-1.39,7.38-2.57c5.91-2.59,5.83-2.56,3.07-8.48
			c-0.92-1.97-2.32-2.58-4.26-2.98c-2.21-0.45-3.87,0.13-5.6,1.5c-2.6,2.06-3.92,4.66-4.68,7.83
			C7.71,127.3,8.34,128.57,12.55,128.87z M46.57,200.3c-4.67-0.16-5.78,0.47-7.26,4.8c-0.76,2.22-1.12,4.59-1.56,6.91
			c-0.13,0.69-0.16,1.43,0.71,1.96c2.18,1.33,5.33,1.38,7.46-0.08c2.27-1.56,4.26-3.45,5.42-5.95c3.15-6.8,2.67-6.48-3.76-7.56
			C47.25,200.32,46.91,200.32,46.57,200.3z M163.28,118.76c-0.24-2.54,0.78-4.7-1.48-5.97c-1.78-1-3.64-1.8-5.65-2.22
			c-0.7-0.15-1.11-0.23-1.65,0.54c-2.29,3.32-3.46,7.11-4.58,10.88c-0.51,1.72-0.77,4.26,1.66,4.63c2.99,0.45,6.15-0.08,8.78-1.8
			C162.72,123.29,163.98,121.04,163.28,118.76z M136.85,209.32c2.04-0.35,4.04-1.25,5.8-2.6c1.37-1.06,1.9-2.29,1.1-4.18
			c-1.37-3.23-4.73-4.46-6.62-7.14c-0.59-0.84-1.57,0.12-2.11,0.72c-1.31,1.45-2.26,3.16-3.06,4.93c-0.66,1.45,2.66,7.88,4.21,8.24
			C136.32,209.32,136.49,209.31,136.85,209.32z M435.8,34.24c0.11-5.36-4.39-8.74-9.88-7.41c-2.99,0.72-3.73,2.44-2.08,5.06
			c2.03,3.23,5.37,4.31,8.82,5.03C435.38,37.49,435.74,37.09,435.8,34.24z M154.85,40.91c-0.28-2.85-0.84-5.54-3.42-7.33
			c-1.56-1.08-3.11-0.59-4.54,0.09c-0.59,0.28-1.71,0.47-1.48,1.73c0.83,4.57,2.07,8.92,5.93,11.99c0.51,0.4,0.92,0.91,1.32,0
			C153.59,45.29,154.63,43.24,154.85,40.91z M2.14,23.92c-0.03,2.98,0.47,3.33,3.43,2.92c2.4-0.33,4.09-1.9,6.05-3.03
			c1.51-0.87,2.37-2.36,1.82-3.76c-0.67-1.7-2.49-2.93-4.27-3.19C6.43,16.46,2.17,21,2.14,23.92z M264.4,91.25
			c1.63-0.31,2.71-0.72,3.79-0.69c3.66,0.12,6-2.11,8.26-4.46c1.3-1.36,1.06-2.68-0.42-3.03c-4.11-0.98-10.58,2.5-11.97,6.5
			C263.8,90.3,263.38,91.36,264.4,91.25z M150.03,227.03c-0.17-0.39,0.58-1.4-0.46-1.93c-0.5-0.25-0.96,0-1.4,0.32
			c-2.66,1.95-4.83,8.03-3.88,11.06c0.32,1.03,0.85,1.86,1.86,0.54C148.36,234.19,150.31,231.23,150.03,227.03z M226.31,272.98
			c-0.1-0.84-0.19-1.68-0.29-2.53c-0.24-2.15-2.13-2.9-3.61-2.94c-1.31-0.04-1.67,1.8-1.73,3.18c-0.02,0.51-0.05,1.03,0.05,1.52
			c0.35,1.81,2.32,3.31,3.94,3.22C226.43,275.34,226.5,274.3,226.31,272.98z M222.2,110.47c-0.12-2.13-0.17-3.73-0.3-5.32
			c-0.11-1.32-1.21-1.58-2.2-1.66c-1.46-0.13-0.91,1.1-0.99,1.81c-0.24,2.06,0.99,3.91,0.93,5.96c-0.02,0.64-0.03,1.6,0.67,1.77
			c0.87,0.21,1.24-0.73,1.57-1.39C222.13,111.13,222.19,110.52,222.2,110.47z M411.26,228.9c-0.16-2.48-1.54-3.05-2.88-3.51
			c-1.18-0.41-2.44-0.59-3.66-0.88c-0.52-0.12-1.16-0.69-1.41,0.28c-0.17,0.66-0.24,1.4,0.49,1.8c1.83,1.02,3.64,2.08,5.54,2.95
			C410.44,230.05,411.37,229.75,411.26,228.9z M217.79,162.53c1.12-0.27,3.1,0.18,3.11-1.2c0.01-1.61-2.07-1.19-3.26-1.42
			c-1.15-0.22-2.09,0.75-2.08,1.72C215.58,163.08,217,162.18,217.79,162.53z M421.15,90.4c0.28-2.4-1.23-2.88-2.7-3.12
			c-0.52-0.08-1.66-0.71-1.87,0.47c-0.2,1.11,0.65,1.78,1.61,1.84C419.18,89.65,420.11,89.75,421.15,90.4z M375.91,42.47
			c-0.22-0.95-1.16-0.74-1.83-0.83c-0.79-0.09-0.92,0.57-0.86,1.21c0.1,1.13,0.93,0.67,1.53,0.67
			C375.41,43.53,375.96,43.41,375.91,42.47z"/>
		<path class="st1" d="M460.55,92.45c-3.59-2.67-7.22-5.29-10.6-8.24c-1.4-1.22-3.06-2.14-4.86-2.69c-1.52-0.47-2.06-1.59-1.68-2.95
			c1.19-4.23,2.43-8.44,3.83-12.6c1.3-3.88,4.6-4.91,8.23-5.18c1.68-0.13,3.39,0,5.08,0.02C460.55,71.35,460.55,81.9,460.55,92.45z"
			/>
		<path class="st1" d="M0.05,199.65c0.71,0.18,1.37-0.04,1.96-0.36c6.25-3.44,10.98,0.6,15.9,3.33c1.63,0.91,1.37,4.06-0.25,6.51
			c-2.76,4.17-5.66,8.24-9.13,11.87c-1.53,1.6-2.94,3.27-4,5.23c-0.98,1.81-2.58,2.87-4.47,3.54
			C0.05,219.72,0.05,209.68,0.05,199.65z"/>
		<path class="st1" d="M373.24,0.05c0.05,0.25,0.03,0.54,0.15,0.75c4.68,7.76-0.19,13.3-4.37,19.02c-0.64,0.88-1.48,0.89-2.25,0.43
			c-1.73-1.04-3.41-2.01-4.46-4c-2.7-5.15-4.93-10.44-5.92-16.2C362.01,0.05,367.63,0.05,373.24,0.05z"/>
		<path class="st2" d="M218.04,0.05c0.8,1.68,1.48,3.42,2.43,5.01c1.69,2.85,0.63,5.51-1.17,7.4c-2.16,2.26-5.21,3.41-8.52,3.27
			c-0.91-0.04-1.25-0.77-1.58-1.46c-1.84-3.91-1.8-7.77,0.15-11.67c0.6-1.21,2.39-1.04,2.57-2.55C213.96,0.05,216,0.05,218.04,0.05z
			"/>
		<path class="st3" d="M451.87,287.96c-1.54-7.7,3.37-11.87,8.68-15.82c0,4.85-0.04,9.7,0.03,14.55c0.02,1.1-0.21,1.36-1.31,1.31
			C456.8,287.88,454.33,287.96,451.87,287.96z"/>
		<path class="st2" d="M460.55,162.38c-3.27,0.23-5.21-2.5-7.8-3.75c-0.87-0.42-0.79-2.91-0.02-4.28c2.2-3.9,4.67-7.63,7.82-10.86
			C460.55,149.79,460.55,156.08,460.55,162.38z"/>
		<path class="st1" d="M140.95,0.05c-4.29,4.09-8.78,7.64-15.29,6.88c-2.13-0.25-2.86-1.02-2.19-3.14c0.38-1.19,0.43-2.49,0.64-3.74
			C129.72,0.05,135.34,0.05,140.95,0.05z"/>
		<path class="st4" d="M152.19,0.05c4.59,0,9.19,0,13.78,0c0.18,0.47,0.43,0.92,0.54,1.4c0.31,1.26,2.06,2.68,0.42,3.77
			c-1.47,0.98-3.11,2.45-5.33,1.09c-2.84-1.74-5.71-3.48-9.1-4.01c0,0,0-0.04,0-0.04C152.79,1.46,152.25,0.79,152.19,0.05z"/>
		<path class="st3" d="M195.77,286.42c0.11,0.51,0.21,1.03,0.32,1.54c-2.55,0-5.11,0-7.66,0c-1.04-1.97,0.05-5.1-3.21-5.85
			c2.17-1.92,5.2-2.32,7.38-4.21C194.14,280.55,194.56,283.63,195.77,286.42z"/>
		<path class="st3" d="M66.93,287.96c4.23-1.94,8.68-3.24,13.14-4.48c3.26-0.9,6.43,1.21,7.28,4.48
			C80.54,287.96,73.73,287.96,66.93,287.96z"/>
		<path class="st5" d="M152.51,2.3c3.39,0.53,6.26,2.27,9.1,4.01c2.22,1.36,3.86-0.11,5.33-1.09c1.64-1.09-0.11-2.5-0.42-3.77
			c-0.12-0.48-0.36-0.93-0.54-1.4c2.04,0,4.08,0,6.13,0c-1.66,3.5-3.66,6.62-7.72,7.76c-0.75,0.21-1.4,0.59-2.12,0.04
			c-2.85-2.15-6.13-3.47-9.33-4.95C152.73,2.82,152.65,2.5,152.51,2.3z"/>
		<path class="st5" d="M185.22,282.1c3.26,0.75,2.17,3.89,3.21,5.85c-1.36,0-2.72,0-4.08,0c0.13-1.68-0.2-3.27-0.95-4.78
			C184.01,282.82,184.61,282.46,185.22,282.1z"/>
		<path class="st3" d="M183.4,283.18c0.75,1.51,1.08,3.09,0.95,4.78c-2.38,0-4.76,0-7.15,0
			C179.27,286.37,181.33,284.77,183.4,283.18z"/>
		<path class="st5" d="M152.19,0.05c0.07,0.74,0.6,1.42,0.32,2.21c-1-0.4-1.03-1.39-1.34-2.21C151.51,0.05,151.85,0.05,152.19,0.05z
			"/>
		<path class="st3" d="M334.49,45.28c-0.1,4.13-1.85,7.88-2.75,11.83c-0.05,0.23-0.3,0.43-0.3,0.65c-0.04,1.75,0.41,4.07-0.98,4.99
			c-2.64,1.76-5.68,3.16-9.02,3.04c-5.41-0.2-10.82-0.5-16.22-0.91c-4.64-0.35-5.17-0.98-5.5-5.45c-0.05-0.68,0.03-1.37-0.1-2.03
			c-0.99-5.06,0.88-9.01,5.07-11.67c3.88-2.46,8.22-4.01,12.84-4.49c4.86-0.51,9.23-2.63,13.83-4c0.59,0.54,0.83,1.53,1.88,1.5
			c1.66-0.05,1.91,0.98,1.82,2.33C334.94,42.48,335.09,43.93,334.49,45.28z"/>
		<path class="st1" d="M243.38,181.6c0.01,2.39-1.56,4.11-2.71,5.93c-2.27,3.59-5.21,6.67-8.18,9.72c-0.96,0.99-1.69,0.79-2.61,0.06
			c-8.7-6.93-17.18-14.08-23.93-23.04c-0.88-1.17-0.84-2.19,0.04-3.2c2.57-2.99,5.54-5.46,9.26-6.91c1.28-0.5,2.52-0.16,3.73,0.28
			c8.89,3.26,16.28,8.85,23.36,14.94C243.02,179.96,243.41,180.68,243.38,181.6z"/>
		<path class="st5" d="M75.55,38.86C74.13,44,69.98,46.84,66.21,50c-0.2,0.16-0.38,0.33-0.58,0.5c-1.81,1.47-2.85,4.35-5.89,3.65
			c-4.56-1.06-8.83-2.77-11.03-7.32c-1.92-3.97-3.9-8.12-2.89-12.65c1.28-5.79,3.83-11.06,8.18-15.27c0.78-0.75,1.62-0.14,2.41,0.03
			c3.34,0.72,6.22,2.66,9.47,3.65c0.25,1.1,1.49,1.79,1.26,3.08c-1.46-0.64-2.59-0.49-3.38,1.12c-0.47,0.96-1.28,1.75-1.89,2.65
			c-0.7,1.03-0.68,1.79,0.7,2.32c2.02,0.78,4.13,1.51,5.91,2.7c1.77,1.19,4.59,1.2,5.03,4.09c0.09,0.6-0.32,1.57,0.54,1.75
			C74.99,40.51,75.11,39.42,75.55,38.86z"/>
		<path class="st3" d="M255.59,154.96c-2.49-2.58-4.65-5.43-6.42-8.47c-1.17-2-1.52-4.6-0.85-6.9c0.75-2.58,1.24-5.26,2.44-7.72
			c1.64-3.38,4.17-5.06,8-5.19c6.43-0.22,12.41,1.52,18.36,3.58c0.83,0.29,1.64,0.67,2.49,0.81c3.54,0.58,3.28,0.51,2.82,3.89
			c-0.47,3.49-3.01,4.63-5.58,5.72c-5.24,2.2-10,5.42-15.45,7.14c-2.29,0.72-3.78,2.05-4.38,4.44
			C256.77,153.18,256.56,154.25,255.59,154.96z"/>
		<path class="st4" d="M328.75,27.2c-1.24-4.48,0.05-8.64,1.56-12.8c1.29-3.55,2.83-4.69,6.7-4.53c0.55,1.7,2.88,1.08,3.5,2.67
			c1.13,2.88,2.33,6.1,1.38,8.91c-1.24,3.64,0.44,6.54,1.39,9.43c1.51,4.58,3.76,8.94,5.44,13.49c-2.9-0.53-2.69,2.47-4.1,3.62
			l-0.25,0c0,0-0.24-0.05-0.24-0.05c-0.2-0.29-0.59-0.66-0.8-0.39c-1.97,2.42-4.18,1.45-6.4,0.53c0,0,0.03,0.03,0.03,0.03
			c0.07-0.92,0.2-1.84-0.47-2.62l0.01,0.01c-0.07-0.75-0.06-1.52-0.23-2.24c-0.41-1.76,0.32-3.89-1.37-5.22
			c-2.74-2.16-3.86-5.03-4.68-8.33c-0.6-2.42-0.9-4.83-1.47-7.28C328.75,24.01,328.75,25.61,328.75,27.2z"/>
		<path class="st3" d="M101.27,72.55c0.23-2.96,0.5-5.93,0.68-8.89c0.09-1.56,0.86-2,2.32-1.85c5.22,0.53,8.42,3.76,10.32,8.23
			c2.38,5.6,3.95,11.46,4.65,17.55c0.2,1.75-0.23,3.02-1.68,3.9c-4.66,2.82-7.59,3.07-10.74-1.28
			C103.17,85.15,101.34,79.55,101.27,72.55z"/>
		<path class="st1" d="M414.52,236.16c3.04-0.35,5,0.94,6.14,3.76c0.95,2.34,2.08,4.59,3.75,6.57c0.72,0.86,1.18,2.01,1.26,3.27
			c0.21,3.52-0.09,4.12-3.53,5.02c-3.28,0.86-6.6,1.54-9.91,2.26c-2.44,0.54-4.73,1.33-6.18,3.55c-0.81,1.24-1.61,1.08-2.74,0.34
			c-3.11-2.04-4.73-6.34-2.18-10.04c3.11-4.51,5.5-9.49,9.62-13.29C411.87,236.57,412.9,235.67,414.52,236.16z"/>
		<path class="st5" d="M132.63,158.94c-1.77-2.64-3.54-5.28-5.32-7.93c-0.92-2.26-2-4.44-3.4-6.45c-0.49-2.48-0.78-5.01-1.52-7.41
			c-0.7-2.27,0.45-2.74,2.16-2.79c3.56-0.11,7.13-0.2,10.7-0.1c3.83,0.1,7.64-0.01,11.42-0.62c1.33-0.22,1.92,0.21,1.93,1.55
			c0.06,8.51-2.25,16.5-5.39,24.3c-0.08,0.19-0.4,0.28-0.61,0.41c-1-0.87,0.85-1.92-0.15-2.75c-2.88-2.38-1.91-7.12-5.67-9.08
			c-0.75-0.39-1.46-1.34-2.32-1.21c-1.46,0.22-2.1-0.39-2.76-1.54c-0.49-0.86-0.94-2.53-2.25-1.9c-1.38,0.66,0.42,1.69,0.29,2.63
			c-0.02,0.16,0.08,0.33,0.09,0.5c0.18,3.89,0.39,7.77,2.75,11.14C132.79,157.99,132.63,158.52,132.63,158.94z"/>
		<path class="st5" d="M348.72,44.37c-1.68-4.56-3.92-8.92-5.44-13.49c-0.96-2.89-2.63-5.79-1.39-9.43
			c0.95-2.81-0.25-6.03-1.38-8.91c-0.62-1.59-2.95-0.97-3.5-2.67c6.06,1.72,11.11,5.09,15.86,9.17c4.79,4.11,6.88,9.38,7.95,15.36
			c0.48,2.68-0.45,4.49-2.54,5.81c-2.64,1.66-5.4,3.13-8.11,4.69C349.69,44.71,349.21,44.54,348.72,44.37z"/>
		<path class="st1" d="M123.92,144.56c1.4,2.01,2.48,4.19,3.4,6.45c-0.51,1.87-1.91,2.51-3.66,2.91c-5.12,1.18-10.03,3.2-15.3,3.8
			c-4.18,0.48-7.13-1.76-7.66-5.97c-0.7-5.47-0.3-6.09,4.42-9.01c3.17-1.96,6.82-3.08,9.63-5.67c1.29-1.19,2.12,0,2.93,0.89
			C119.71,140.21,121.3,142.87,123.92,144.56z"/>
		<path class="st3" d="M129.3,133.23c-1.15-0.2-3.63,1.05-5.01-1.88c-1.77-3.76-1.57-5.19,1.84-7.75
			c5.41-4.07,10.9-8.04,16.78-11.42c1.17-0.67,2.72-1.98,3.9-0.78c1.42,1.43,2.47,3.79,1.81,5.61c-1.65,4.55-2.72,9.38-5.7,13.4
			c-0.67,0.9-1.39,1.4-2.43,1.61C137.11,132.69,133.75,133.61,129.3,133.23z"/>
		<path class="st3" d="M259.56,248.61c-4.13-0.15-8.03-1.21-11.79-2.9c-0.88-0.4-1.4-0.88-1.32-1.9c0.26-3.4,1.04-6.74,2.25-9.84
			c0.97-2.48,3.83-3.68,5.63-5.68c0.43-0.48,0.93-0.1,1.34,0.22c3.98,3.11,7.97,6.19,11.93,9.32c0.87,0.69,1.38,1.68,1.88,2.68
			c1.72,3.45,0.82,5.84-2.89,7.04C264.32,248.28,261.98,248.71,259.56,248.61z"/>
		<path class="st1" d="M298.14,95.51c-5.49,0.06-7.46-1.69-8.1-7.16c-0.2-1.68-0.64-3.34-0.9-5.02c-0.54-3.55,1.76-6.31,5.42-6.56
			c4.73-0.32,9.07,1.02,13.25,3.07c0.37,0.18,0.91,0.45,0.97,0.76c0.66,3.22,2.18,6.53,1.06,9.71c-1.1,3.13-4.45,3.96-7.4,4.76
			C301.07,95.45,299.58,95.38,298.14,95.51z"/>
		<path class="st3" d="M384.82,82.79c5.2,6.5,10.73,12.78,13.41,20.9c0.93,2.81-0.39,5.77-3.19,6.64c-1.93,0.6-3.89,1.13-5.85,1.62
			c-1.36,0.34-2.61,0.05-3.13-1.39c-2.88-8.06-4.87-16.33-5.71-24.85c-0.13-1.32,0.04-2.72,0.64-3.98c0.31-0.06,0.62-0.13,0.94-0.2
			C383.07,81.54,383.8,82.48,384.82,82.79z"/>
		<path class="st2" d="M195.77,286.42c-1.21-2.79-1.63-5.86-3.17-8.53c-0.66-6.24-0.92-12.51-1.17-18.78
			c-0.09-2.18,0.38-3.8,2.62-4.6c1.19-0.43,2.28-1.13,3.46-1.59c2.89-1.14,4.67-0.09,5.93,2.72c3.59,8.02,0.84,15.21-3.1,21.99
			c-1.26,2.17-1.41,4.41-2.16,6.57C197.69,285.6,197.1,286.24,195.77,286.42z"/>
		<path class="st3" d="M67.12,25.67c0.23-1.29-1.01-1.98-1.26-3.08c1.14-1.8,1.13-3.87,1.36-5.88c0.14-1.17,0.57-1.78,1.84-1.96
			c4.1-0.56,8.15-0.99,12.28-0.04c2.24,0.52,4.63-0.38,6.96,0.54c0.87,0.34,1.3,0.78,1.48,1.46c0.87,3.37,1.72,6.74,1.59,10.29
			c-0.06,1.67-0.86,2.08-2.34,2.23c-2.82,0.29-5.51-0.73-8.3-0.63c-0.93,0.04-1.85-0.02-2.64,0.59c-2.78-1.76-6.2-1.4-9.12-2.73
			c-0.29-0.32-0.6-0.58-1.08-0.46C67.64,25.89,67.38,25.78,67.12,25.67z"/>
		<path class="st5" d="M333.05,110.33c-3.4,5.66-9.61,7.61-16.04,5.04c-7.68-3.07-9.11-6.76-5.68-14.33
			c0.68-1.51,1.57-2.16,3.29-2.12c7.92,0.15,14.66,2.4,18.7,9.86c-0.84-0.04-1.48-1.08-2.45-0.5c0,0-0.12-0.12-0.12-0.12l0.13,0.11
			C330.89,109.7,330.51,111.54,333.05,110.33z"/>
		<path class="st5" d="M329.91,206.92c-3.31-2.19-6.24-4.64-8.36-8.19c-1.98-3.31-2.06-6.41-1.04-9.9c0.39-1.33,1.05-2,2.31-2.35
			c1.14-0.32,2.24-0.77,3.35-1.19c3.02-1.15,5.65-0.14,6.57,2.98c0.63,2.16,1.85,2.52,3.82,2.78c6.29,0.82,7.34,0.1,5.18,7.22
			c-0.63,2.09-0.86,4.32-2.1,6.21c-2.58,1.5-5.33,2.27-8.35,2C330.85,206.43,330.38,206.76,329.91,206.92z M323.44,199.55
			c1.8-3.18,3.01-6.45,2.02-10.13c-0.22-0.8,0.21-2.27-1.06-2.26c-1.2,0.01-2.24,0.71-2.85,2.1
			C319.82,193.16,320.74,196.46,323.44,199.55z"/>
		<path class="st1" d="M375.22,165.06c4.52-0.21,8.92,0.52,13.31,1.55c2.64,0.62,3.75,3.18,4.51,7.01c0.49,2.47-0.74,4.24-3.13,5.15
			c-1.11,0.42-2.2,0.89-3.28,1.36c-5.6,2.44-7.46,2.11-11.43-2.52c-2.31-2.7-4.44-5.56-6.51-8.45c-1.79-2.5-1.13-3.83,1.94-4.08
			C372.16,164.96,373.69,165.06,375.22,165.06z"/>
		<path class="st1" d="M75.57,261.07c2.77,0.42,6.39,0.93,9.99,1.51c1.69,0.27,2.6,1.3,2.94,3.04c0.62,3.24-0.63,5.93-3.48,7.51
			c-2.79,1.54-5.79,2.42-8.85,3.11c-3.22,0.73-9.21-2.42-10.52-5.35c-0.62-1.39,0.34-2.47,0.69-3.63
			C67.11,264.73,72.3,261,75.57,261.07z"/>
		<path class="st1" d="M67.49,121.59c-3.9-0.7-8.33-1.43-12.73-2.32c-1.46-0.3-2.06-2.39-0.9-3.48c2.59-2.43,4.65-5.6,8.89-5.73
			c3.21-0.1,6.39-0.87,9.64-0.76c1.91,0.07,3.46,0.76,4.45,2.47c1.06,1.83,2.21,3.62,3.17,5.5c0.99,1.95,0.19,3.67-1.79,3.68
			C74.81,120.95,71.43,121.32,67.49,121.59z"/>
		<path class="st5" d="M432.85,222.96c-0.18-1.18,0.34-1.86,1.41-2.37c3.15-1.51,6.41-2.69,9.8-3.5c4.11-0.99,7.4,1.17,10.16,3.57
			c1.55,1.35,1.24,4.21,1.31,6.4c0.04,1.22-1.49,1.12-2.49,1.08c-2.49-0.1-4.88,0.14-7.22,1.13c-1.68,0.71-2.42,2.47-4.17,3.18
			c-1.49,0.6-2.56,0.83-3.92-0.14c-1.52-1.08-3.14-2.01-4.48-3.33C434.51,226.89,432.47,225.01,432.85,222.96z M439.64,224.96
			c-0.07-1.28-1.06-1.32-1.78-1.63c-0.76-0.33-1.76-0.33-2.08-1.25c-0.23-0.66-0.44-0.95-0.97-0.35c-0.45,0.5-1,1.43-0.14,1.67
			C436.3,223.85,437.69,225.26,439.64,224.96z"/>
		<path class="st5" d="M220.64,198.03c3.56,3.1,5.45,6.97,5.75,11.71c0.1,1.63,0.87,3.21,1.21,4.83c0.56,2.66-1.17,5.57-3.72,6.41
			c-0.9,0.3-1.88,0.17-2.31-0.57c-1.32-2.28-3.85-3.54-4.84-6.11c-0.35-0.91-1.02-1.77-1.98-2.45c-1.77-1.24-2.1-3.39-2.3-5.4
			c-0.22-2.27-0.3-4.57-0.25-6.86c0.08-3.45,3.6-5.26,6.7-3.52c-1.96-0.26-2.64,0.41-1.98,2.41c0.47,1.45,1.13,2.79,1.89,4.09
			c0.39,0.66,0.7,0.83,1.46,0.05C221.81,201.09,221.07,199.6,220.64,198.03z"/>
		<path class="st2" d="M305.76,187.64c-0.14,3.71-2.25,6.12-5.84,6.65c-1.34,0.2-2.7,0.36-4.02,0.69c-6.77,1.72-7.44-0.94-8.82-7.03
			c-0.7-3.09,0.7-4.85,3.62-6.27c0.23-0.11,0.46-0.22,0.69-0.32c6.88-3.07,7.02-3.05,12.6,2.07
			C305.68,184.98,305.84,185.35,305.76,187.64z"/>
		<path class="st2" d="M32.49,56.15c-0.25,4.22-1.06,4.82-5.15,3.66c-2.36-0.67-4.69-1.46-7-2.28c-4.13-1.46-5.13-4.94-2.28-8.32
			c2.45-2.9,5.85-4.26,9.45-5.15c0.87-0.21,1.4,0.23,1.88,0.94C30.76,47,32.64,53.63,32.49,56.15z"/>
		<path class="st5" d="M317.62,258.06c2.44,0.25,4.88,0.61,7.32,0.72c1.48,0.06,1.62,0.37,1.48,1.9
			c-0.73,8.14-6.98,11.37-12.88,14.98c-0.92,0.56-1.3,0.21-1.66-0.68c-1.64-4.02-3.33-8.02-5.01-12.03c1.57,0.45,1.7,2.2,2.81,3.11
			c0.93,0.76,1.49,0.85,2.22-0.19c1.64-2.35,3.46-4.56,5.73-6.32C318.49,258.87,317.61,258.55,317.62,258.06z M310.45,268.04
			l0.1,0.11l-0.11-0.1c-0.15-0.18-0.31-0.36-0.46-0.53c-0.06,0.09-0.12,0.17-0.18,0.26C310.02,267.87,310.24,267.95,310.45,268.04z"
			/>
		<path class="st5" d="M177.26,166.73c0.17-2.49,0.26-4.27,0.43-6.04c0.21-2.26,2.1-1.45,3.17-1.39c2.58,0.15,4.96,1.36,7.54,1.78
			c1.53,0.25,2.14,4.18,1.23,5.93c-1.7,3.26-3.33,6.55-5.02,9.82c-0.37,0.72-0.11,2.24-1.54,1.81c-1.6-0.48-3.94-0.19-4.4-2.34
			C177.95,172.91,177.64,169.44,177.26,166.73z"/>
		<path class="st3" d="M231.84,269.06c-1.83,0.06-3.48-0.69-5.16-1.26c-0.36-0.12-0.85-0.51-0.88-0.81
			c-0.23-2.77-1.71-5.53-0.34-8.32c1-2.04,2.38-3.68,5.04-3.33c1.77,0.23,3.55,0.33,5.31,0.63c3.93,0.66,4.15,0.95,4.23,4.83
			C240.14,265.07,236.08,269.15,231.84,269.06z"/>
		<path class="st3" d="M12.55,128.87c-4.21-0.3-4.84-1.57-4.09-4.7c0.76-3.17,2.08-5.77,4.68-7.83c1.73-1.37,3.39-1.95,5.6-1.5
			c1.94,0.39,3.34,1.01,4.26,2.98c2.76,5.92,2.85,5.88-3.07,8.48C17.22,127.48,14.57,128.85,12.55,128.87z"/>
		<path class="st3" d="M46.57,200.3c0.34,0.02,0.68,0.03,1.01,0.08c6.44,1.08,6.92,0.76,3.76,7.56c-1.16,2.5-3.15,4.39-5.42,5.95
			c-2.13,1.47-5.29,1.42-7.46,0.08c-0.87-0.53-0.85-1.27-0.71-1.96c0.44-2.32,0.8-4.69,1.56-6.91
			C40.79,200.77,41.91,200.14,46.57,200.3z"/>
		<path class="st4" d="M132.63,158.94c-0.01-0.42,0.16-0.96-0.04-1.24c-2.37-3.37-2.58-7.24-2.75-11.14
			c-0.01-0.17-0.11-0.34-0.09-0.5c0.14-0.94-1.67-1.97-0.29-2.63c1.31-0.63,1.76,1.04,2.25,1.9c0.66,1.16,1.3,1.76,2.76,1.54
			c0.85-0.13,1.57,0.82,2.32,1.21c3.75,1.96,2.78,6.7,5.67,9.08c1,0.83-0.85,1.88,0.15,2.75c-0.26,0.64,0.18,1.42-0.4,2
			c-0.81,0.33-0.98,1.09-1.26,1.8c-1.38,3.46-1.39,3.46-4.23,1.84c0,0,0.08-0.03,0.08-0.03c0.24-1.73-0.83-2.72-2.07-3.6
			c0,0-0.13,0.08-0.13,0.08c0.79-1.93-0.93-2.31-1.94-3.12L132.63,158.94z"/>
		<path class="st2" d="M348.72,44.37c0.48,0.17,0.97,0.35,1.45,0.52c0.29,0.41,0.48,0.95,0.87,1.2c3.55,2.27,3.41,6.19,4.15,9.61
			c0.58,2.7-3.09,7.63-5.22,7.66c-0.81,0.01-1.43-0.08-1.89-0.91c-2.18-3.91-2.93-8.26-3.89-12.53c-0.13-0.58,0.27-1.29,0.43-1.93
			C346.04,46.83,345.82,43.83,348.72,44.37z"/>
		<path class="st4" d="M67.12,25.67c0.26,0.11,0.52,0.23,0.78,0.34c0.36,0.15,0.72,0.31,1.08,0.46c2.91,1.33,6.33,0.97,9.12,2.73
			c0.24,3.51,0.96,7.14-2.55,9.65c-0.44,0.57-0.56,1.65-1.51,1.44c-0.86-0.19-0.45-1.15-0.54-1.75c-0.44-2.89-3.26-2.9-5.03-4.09
			c-1.78-1.19-3.89-1.92-5.91-2.7c-1.38-0.53-1.4-1.29-0.7-2.32c0.61-0.9,1.42-1.69,1.89-2.65C64.54,25.17,65.66,25.03,67.12,25.67z
			"/>
		<path class="st5" d="M163.28,118.76c0.7,2.28-0.56,4.52-2.92,6.06c-2.63,1.72-5.79,2.25-8.78,1.8c-2.43-0.37-2.18-2.91-1.66-4.63
			c1.13-3.77,2.29-7.56,4.58-10.88c0.54-0.78,0.95-0.69,1.65-0.54c2.01,0.43,3.87,1.22,5.65,2.22
			C164.06,114.07,163.04,116.22,163.28,118.76z M160.66,117.38c-2.74,1.03-6.05,2.27-9.34,3.55c-0.27,0.11-0.44,0.5-0.64,0.77
			c-0.57,0.78-0.63,1.54,0.12,2.26c0.73,0.7,1.34,0.38,1.98-0.18c1.64-1.44,3.58-2.19,5.76-2.22c1.51-0.02,2.45-1.04,3.48-1.87
			c0.56-0.45,0.44-1.24,0.26-1.91C162.13,117.25,161.71,117.2,160.66,117.38z"/>
		<path class="st5" d="M212.94,43.88c2.49,0.1,4.39,1.11,5.4,3.5c0.07,0.16,0.14,0.31,0.23,0.46c2.39,4.13,2.36,4.3-1.32,7.78
			c-2.12,2-7.59,2.94-9.53,1.39c-1.84-1.46-2.58-3.7-3.17-5.93c1.07-0.05,2.98,0.14,3.07-0.19c0.76-2.7,2.87-1.63,4.49-1.83
			c1.81-0.22,2.91-1.72,3.58-2.88c0.6-1.04-1.55-0.99-2.28-1.71C213.23,44.3,213.1,44.08,212.94,43.88z"/>
		<path class="st2" d="M136.85,209.32c-0.35-0.02-0.53,0-0.69-0.04c-1.55-0.37-4.87-6.79-4.21-8.24c0.81-1.77,1.75-3.48,3.06-4.93
			c0.54-0.6,1.52-1.56,2.11-0.72c1.89,2.68,5.25,3.92,6.62,7.14c0.8,1.9,0.27,3.13-1.1,4.18
			C140.89,208.08,138.88,208.97,136.85,209.32z"/>
		<path class="st5" d="M166.83,67.74c-3.04-2.05-4.17-4.9-3.21-7.7c0.42-1.23,1.12-2.05,2.3-2.49c1.03-0.39,1.91-0.86,2.57-1.86
			c1-1.51,2.26-0.68,3.49-0.15c3.77,1.62,6.82,4.14,9.36,7.31c0.17,0.21,0.08,0.64,0.12,0.97c-1.3-0.1-1.07,2.24-2.77,1.65
			c-3.38-1.17-6.41-2.81-8.64-5.75C167.79,61.93,164.67,63.77,166.83,67.74z"/>
		<path class="st5" d="M435.8,34.24c-0.06,2.85-0.42,3.24-3.14,2.68c-3.45-0.72-6.79-1.8-8.82-5.03c-1.65-2.62-0.91-4.34,2.08-5.06
			C431.41,25.5,435.91,28.88,435.8,34.24z"/>
		<path class="st4" d="M154.85,40.91c-0.23,2.33-1.27,4.39-2.18,6.48c-0.4,0.92-0.82,0.41-1.32,0c-3.86-3.08-5.11-7.42-5.93-11.99
			c-0.23-1.26,0.89-1.44,1.48-1.73c1.43-0.68,2.99-1.17,4.54-0.09C154.01,35.37,154.58,38.06,154.85,40.91z"/>
		<path class="st4" d="M166.83,67.74c-2.16-3.97,0.96-5.81,3.21-8.03c2.23,2.93,5.26,4.58,8.64,5.75c1.7,0.59,1.47-1.75,2.77-1.65
			c-0.15,3.24-3.81,6.8-6.91,6.7c-1.61-0.06-3.21-0.23-4.75-0.74c0.45-2.72-1.46-2.09-2.94-2.08L166.83,67.74z"/>
		<path class="st5" d="M377.69,77.27c-2.59-1.92-3.87-4.83-5.5-7.46c-0.44-0.71-0.43-1.64,0.33-2.33c0.72-0.65,1.56-0.74,2.36-0.31
			c3.06,1.64,6.46,2.56,9.37,4.52c0.81,0.54,1.38,1.2,1.81,2.05c1.16,2.26,2.25,4.56,3.94,6.5c0.58,0.67,1.28,1.52-0.48,1.48
			c-5.23-0.01-5.27,0-6.26-5.39c-0.39-2.12-0.42-4.38-3.56-4.07c-0.29,0.03-0.66-0.49-0.94-0.79c-0.79-0.86-1.5-0.81-2.41-0.07
			c-0.98,0.81-1.14,1.61-0.45,2.63C376.6,75.06,377.84,75.78,377.69,77.27z"/>
		<path class="st3" d="M2.14,23.92c0.03-2.92,4.29-7.46,7.02-7.06c1.78,0.26,3.6,1.49,4.27,3.19c0.55,1.39-0.31,2.89-1.82,3.76
			c-1.96,1.13-3.65,2.7-6.05,3.03C2.61,27.25,2.11,26.9,2.14,23.92z"/>
		<path class="st4" d="M317.62,258.06c0,0.48,0.88,0.81,0.01,1.48c-2.27,1.76-4.09,3.97-5.73,6.32c-0.73,1.05-1.29,0.95-2.22,0.19
			c-1.11-0.91-1.24-2.66-2.81-3.11c-0.1-0.14-0.24-0.26-0.29-0.41c-1.62-4.88-1.18-5.51,3.85-5.66
			C312.91,256.8,315.25,257.52,317.62,258.06z"/>
		<path class="st3" d="M264.4,91.25c-1.02,0.11-0.6-0.95-0.34-1.68c1.39-4,7.86-7.48,11.97-6.5c1.48,0.35,1.72,1.67,0.42,3.03
			c-2.26,2.36-4.6,4.58-8.26,4.46C267.11,90.53,266.03,90.94,264.4,91.25z"/>
		<path class="st4" d="M212.94,43.88c0.15,0.2,0.29,0.42,0.46,0.59c0.73,0.72,2.88,0.66,2.28,1.71c-0.67,1.16-1.78,2.66-3.58,2.88
			c-1.62,0.2-3.73-0.87-4.49,1.83c-0.09,0.32-2.01,0.14-3.07,0.19c-0.26-0.71-0.56-1.42-0.77-2.15c-1.07-3.56,2.09-6.84,5.78-5.99
			C210.69,43.2,211.81,43.56,212.94,43.88z"/>
		<path class="st5" d="M275.77,271.57c0.94,0.36,1.42,1.14,1.85,1.98c1.37,2.72,0.83,3.65-2.19,3.68c-3.13,0.03-6.27-0.04-9.33-0.81
			c-3.35-0.84-4.33-3.66-2.25-6.42c0.66-0.87,1.39-1.69,2.09-2.53c-0.03,2.23,2.63,5.36,5.16,5.45c2.6,0.09,3.02,0.97,1.66,3.06
			c4.57,0.42,4.69,0.26,3.07-3.65C275.72,272.11,275.78,271.83,275.77,271.57z"/>
		<path class="st4" d="M377.69,77.27c0.15-1.49-1.09-2.2-1.78-3.23c-0.69-1.02-0.53-1.82,0.45-2.63c0.9-0.75,1.61-0.79,2.41,0.07
			c0.28,0.31,0.65,0.82,0.94,0.79c3.15-0.31,3.17,1.96,3.56,4.07c1,5.39,1.03,5.38,6.26,5.39c-1.43,0.96-3.33-0.12-4.71,1.07
			c-1.01-0.31-1.75-1.25-2.9-1.26c-0.36-0.09-0.71-0.18-1.07-0.27c0,0,0.02-0.01,0.02-0.01c-0.09-2.09-1.8-2.93-3.13-4.06
			L377.69,77.27z"/>
		<path class="st5" d="M238.74,58.43c2.99-2.18,6.56-1.83,9.95-2.28c0.76-0.1,1.07,0.29,1.07,1.01c0.01,1.86-0.35,3.39-2.37,4.25
			c-1.85,0.79-3.68,1.65-5.66,1.87c-1.07,0.12-2.6,0.81-3.23-0.95c2.57-0.27,2.8-0.68,1.45-2.73
			C239.65,59.14,239.15,58.82,238.74,58.43z"/>
		<path class="st4" d="M275.77,271.57c0.01,0.25-0.05,0.54,0.05,0.76c1.63,3.91,1.5,4.08-3.07,3.65c1.36-2.08,0.94-2.96-1.66-3.06
			c-2.52-0.09-5.19-3.22-5.16-5.45c0,0,0.03,0.02,0.03,0.02c0.76,0.06,1.03-0.39,1.07-1.06c0.83-1.01,1.6-0.15,2.2,0.23
			c1.56,0.99,3.01,2.15,4.5,3.24c0.02,0.77,0.31,1.24,1.18,1.02l-0.03,0.15c0,0-0.15-0.03-0.15-0.03c0.24,0.4,0.61,0.54,1.05,0.56
			L275.77,271.57z"/>
		<path class="st1" d="M150.03,227.03c0.28,4.19-1.68,7.15-3.88,10c-1.02,1.32-1.54,0.49-1.86-0.54c-0.95-3.03,1.22-9.11,3.88-11.06
			c0.44-0.32,0.9-0.57,1.4-0.32C150.61,225.63,149.86,226.64,150.03,227.03z"/>
		<path class="st3" d="M226.31,272.98c0.19,1.32,0.12,2.36-1.64,2.46c-1.61,0.09-3.59-1.42-3.94-3.22c-0.1-0.49-0.07-1.02-0.05-1.52
			c0.06-1.38,0.42-3.21,1.73-3.18c1.48,0.04,3.37,0.79,3.61,2.94C226.12,271.29,226.22,272.14,226.31,272.98z"/>
		<path class="st5" d="M336.48,45.48c0.68,0.78,0.55,1.71,0.47,2.62c-1.06-0.73-1.27-2.2-2.47-2.81c0.6-1.35,0.45-2.8,0.55-4.22
			c0.1-1.35-0.16-2.37-1.82-2.33c-1.05,0.03-1.29-0.95-1.88-1.5c-0.79-3.37-2.16-6.58-2.59-10.04c0-1.59,0-3.19,0-4.78
			c0.56,2.45,0.87,4.85,1.47,7.28c0.82,3.3,1.93,6.17,4.68,8.33c1.69,1.33,0.96,3.46,1.37,5.22c0.17,0.73,0.16,1.49,0.23,2.24
			c0,0-0.12,0.1-0.12,0.1L336.48,45.48z"/>
		<path class="st5" d="M385.02,236.17c1.26-0.93,2.78-1.26,4.23-1.58c1.38-0.31,3.3-1,4,0.78c0.86,2.17-0.44,3.5-3.15,3.77
			c-0.25,0.02-0.51-0.01-0.76-0.02C387.29,239.05,386.79,236.68,385.02,236.17z"/>
		<path class="st1" d="M222.2,110.47c-0.01,0.05-0.07,0.65-0.33,1.17c-0.32,0.66-0.69,1.6-1.57,1.39c-0.7-0.17-0.69-1.12-0.67-1.77
			c0.06-2.06-1.17-3.9-0.93-5.96c0.08-0.71-0.47-1.94,0.99-1.81c0.99,0.09,2.09,0.34,2.2,1.66
			C222.03,106.74,222.09,108.34,222.2,110.47z"/>
		<path class="st3" d="M411.26,228.9c0.11,0.85-0.82,1.14-1.92,0.64c-1.9-0.87-3.72-1.93-5.54-2.95c-0.73-0.4-0.65-1.15-0.49-1.8
			c0.25-0.97,0.89-0.4,1.41-0.28c1.22,0.29,2.48,0.47,3.66,0.88C409.73,225.85,411.11,226.42,411.26,228.9z"/>
		<path class="st4" d="M220.64,198.03c0.43,1.57,1.17,3.06-0.35,4.61c-0.77,0.78-1.08,0.61-1.46-0.05c-0.76-1.3-1.42-2.64-1.89-4.09
			c-0.65-2.01,0.02-2.68,1.98-2.41c0.19,0.18,0.38,0.35,0.57,0.53c-0.19,0.94,0.3,1.35,1.15,1.47L220.64,198.03z"/>
		<path class="st4" d="M385.02,236.17c1.77,0.5,2.26,2.87,4.32,2.95c-1.69,0.56-3.45,0.51-5.18,0.44c-0.87-0.03-1.96-0.05-2.13-1.29
			c-0.17-1.18,0.87-1.24,1.6-1.54C384.09,236.54,384.56,236.36,385.02,236.17z"/>
		<path class="st3" d="M217.79,162.53c-0.79-0.35-2.21,0.56-2.23-0.9c-0.01-0.96,0.92-1.94,2.08-1.72c1.19,0.23,3.28-0.19,3.26,1.42
			C220.89,162.71,218.91,162.25,217.79,162.53z"/>
		<path class="st3" d="M329.91,206.92c0.46-0.16,0.94-0.49,1.38-0.45c3.02,0.27,5.77-0.5,8.35-2c-0.38,1.5-1.34,2.16-2.88,2.38
			C334.47,207.2,332.21,207.8,329.91,206.92z"/>
		<path class="st3" d="M421.15,90.4c-1.04-0.65-1.97-0.75-2.97-0.81c-0.95-0.06-1.81-0.73-1.61-1.84c0.21-1.18,1.36-0.55,1.87-0.47
			C419.92,87.52,421.43,88,421.15,90.4z"/>
		<path class="st4" d="M238.74,58.43c0.41,0.38,0.91,0.71,1.21,1.16c1.35,2.05,1.11,2.46-1.45,2.73c-0.99-1.19-2.37-2.37-0.1-3.66
			c0.26,0.18,0.4,0.16,0.37-0.2C238.76,58.47,238.74,58.43,238.74,58.43z"/>
		<path class="st5" d="M136.72,165.55c2.84,1.62,2.84,1.62,4.23-1.84c0.28-0.71,0.46-1.47,1.26-1.8c-0.63,1.81-1.23,3.63-1.92,5.42
			c-0.23,0.58-0.38,1.39-1.19,1.48c-0.87,0.1-1.01-0.76-1.35-1.28C137.35,166.91,137.06,166.21,136.72,165.55z"/>
		<path class="st5" d="M336.93,48.07c2.22,0.93,4.43,1.89,6.4-0.53c0.21-0.26,0.6,0.1,0.8,0.39c-0.52,0.41-1.02,0.87-1.57,1.23
			C339.27,51.33,339.27,51.33,336.93,48.07z"/>
		<path class="st4" d="M432.85,222.96c-0.39,2.04,1.65,3.92,0.4,6.02c-1.68-0.73-1.33-2.04-0.99-3.37
			C432.49,224.74,432.66,223.85,432.85,222.96z"/>
		<path class="st3" d="M375.91,42.47c0.05,0.94-0.5,1.06-1.15,1.06c-0.6-0.01-1.43,0.46-1.53-0.67c-0.06-0.64,0.07-1.3,0.86-1.21
			C374.75,41.73,375.69,41.52,375.91,42.47z"/>
		<path class="st4" d="M330.87,108.28c0.97-0.57,1.6,0.46,2.45,0.5c0.12,0.55,0.56,1.16-0.27,1.55c-2.53,1.21-2.15-0.64-2.17-2.07
			L330.87,108.28z"/>
		<path class="st5" d="M166.86,67.69c1.48-0.01,3.39-0.64,2.94,2.08C168.6,69.4,167.56,68.78,166.86,67.69z"/>
		<path class="st5" d="M377.74,77.2c1.34,1.13,3.05,1.97,3.13,4.06c-0.18-0.19-0.35-0.37-0.53-0.56c-0.14-0.15-0.28-0.3-0.43-0.45
			C379.04,79.34,377.91,78.61,377.74,77.2z"/>
		<path class="st5" d="M134.74,161.91c1.24,0.88,2.31,1.86,2.07,3.6C135.75,164.52,134.91,163.41,134.74,161.91z"/>
		<path class="st5" d="M132.67,158.88c1.01,0.81,2.72,1.19,1.94,3.12C133.65,161.15,132.98,160.12,132.67,158.88z"/>
		<path class="st5" d="M220.64,198.09c-0.85-0.12-1.35-0.52-1.15-1.47C219.87,197.11,220.26,197.6,220.64,198.09z"/>
		<path class="st5" d="M274.91,270.92c-0.87,0.21-1.16-0.25-1.18-1.02C274.12,270.24,274.52,270.58,274.91,270.92z"/>
		<path class="st5" d="M267.03,266.43c-0.04,0.67-0.3,1.12-1.07,1.06C266.13,266.95,266.48,266.59,267.03,266.43z"/>
		<path class="st5" d="M380.85,81.26c0.36,0.09,0.71,0.18,1.07,0.27c-0.31,0.06-0.63,0.13-0.94,0.19
			C380.91,81.58,380.86,81.42,380.85,81.26z"/>
		<path class="st5" d="M275.78,271.6c-0.44-0.02-0.81-0.16-1.05-0.56C275.28,270.85,275.54,271.21,275.78,271.6z"/>
		<path class="st5" d="M238.76,58.47c0.04,0.36-0.11,0.38-0.37,0.2C238.46,58.5,238.58,58.44,238.76,58.47z"/>
		<path class="st4" d="M379.92,80.25c0.14,0.15,0.28,0.3,0.43,0.45C380.2,80.54,380.06,80.4,379.92,80.25z"/>
		<path class="st5" d="M68.98,26.47c-0.36-0.16-0.72-0.31-1.08-0.46C68.38,25.89,68.69,26.16,68.98,26.47z"/>
		<polygon class="st4" points="330.88,108.27 330.75,108.16 330.87,108.28 		"/>
		<path class="st4" d="M323.44,199.55c-2.7-3.09-3.62-6.38-1.89-10.29c0.61-1.39,1.65-2.08,2.85-2.1c1.27-0.01,0.84,1.45,1.06,2.26
			C326.46,193.09,325.24,196.36,323.44,199.55z"/>
		<path class="st4" d="M439.64,224.96c-1.96,0.3-3.34-1.11-4.98-1.56c-0.86-0.24-0.3-1.16,0.14-1.67c0.53-0.6,0.74-0.31,0.97,0.35
			c0.32,0.92,1.33,0.92,2.08,1.25C438.58,223.64,439.57,223.67,439.64,224.96z"/>
		<path class="st4" d="M310.45,268.04c-0.22-0.09-0.43-0.18-0.65-0.27c0.06-0.09,0.12-0.17,0.18-0.26c0.15,0.18,0.31,0.36,0.46,0.53
			L310.45,268.04z"/>
		<polygon class="st4" points="310.44,268.05 310.55,268.15 310.45,268.04 		"/>
		<path class="st4" d="M160.66,117.38c1.06-0.17,1.47-0.12,1.61,0.39c0.18,0.67,0.3,1.46-0.26,1.91c-1.02,0.83-1.97,1.86-3.48,1.87
			c-2.18,0.03-4.12,0.78-5.76,2.22c-0.64,0.56-1.24,0.88-1.98,0.18c-0.76-0.72-0.69-1.48-0.12-2.26c0.2-0.27,0.37-0.66,0.64-0.77
			C154.61,119.64,157.91,118.41,160.66,117.38z"/>
		<polygon class="st4" points="336.48,45.48 336.38,45.59 336.49,45.49 		"/>
	</g>
</g>
</svg>
